<?xml version="1.0" encoding="UTF-8"?>
<svg xmlns="http://www.w3.org/2000/svg" width="290" height="1552" viewBox="0 0 290 1552">
  <defs>
    <marker id="arrow" markerWidth="10" markerHeight="10" refX="5" refY="5" orient="auto" markerUnits="strokeWidth">
      <path d="M0,0 L10,5 L0,10 z" fill="#2d3e50" />
    </marker>
  </defs>
  <rect x="0" y="0" width="290" height="1552" fill="#ffffff" stroke="#e5e7eb" stroke-width="1" />
  <line x1="145.0" y1="58" x2="145.0" y2="76" stroke="#2d3e50" stroke-width="1.2" marker-end="url(#arrow)"/><line x1="145.0" y1="114" x2="145.0" y2="132" stroke="#2d3e50" stroke-width="1.2" marker-end="url(#arrow)"/><line x1="145.0" y1="170" x2="145.0" y2="188" stroke="#2d3e50" stroke-width="1.2" marker-end="url(#arrow)"/><line x1="145.0" y1="226" x2="145.0" y2="244" stroke="#2d3e50" stroke-width="1.2" marker-end="url(#arrow)"/><line x1="145.0" y1="282" x2="145.0" y2="300" stroke="#2d3e50" stroke-width="1.2" marker-end="url(#arrow)"/><line x1="145.0" y1="338" x2="145.0" y2="356" stroke="#2d3e50" stroke-width="1.2" marker-end="url(#arrow)"/><line x1="145.0" y1="394" x2="145.0" y2="412" stroke="#2d3e50" stroke-width="1.2" marker-end="url(#arrow)"/><line x1="145.0" y1="450" x2="145.0" y2="468" stroke="#2d3e50" stroke-width="1.2" marker-end="url(#arrow)"/><line x1="145.0" y1="506" x2="145.0" y2="524" stroke="#2d3e50" stroke-width="1.2" marker-end="url(#arrow)"/><line x1="145.0" y1="562" x2="145.0" y2="580" stroke="#2d3e50" stroke-width="1.2" marker-end="url(#arrow)"/><line x1="145.0" y1="618" x2="145.0" y2="636" stroke="#2d3e50" stroke-width="1.2" marker-end="url(#arrow)"/><line x1="145.0" y1="674" x2="145.0" y2="692" stroke="#2d3e50" stroke-width="1.2" marker-end="url(#arrow)"/><line x1="145.0" y1="730" x2="145.0" y2="748" stroke="#2d3e50" stroke-width="1.2" marker-end="url(#arrow)"/><line x1="145.0" y1="786" x2="145.0" y2="804" stroke="#2d3e50" stroke-width="1.2" marker-end="url(#arrow)"/><line x1="145.0" y1="842" x2="145.0" y2="860" stroke="#2d3e50" stroke-width="1.2" marker-end="url(#arrow)"/><line x1="145.0" y1="898" x2="145.0" y2="916" stroke="#2d3e50" stroke-width="1.2" marker-end="url(#arrow)"/><line x1="145.0" y1="954" x2="145.0" y2="972" stroke="#2d3e50" stroke-width="1.2" marker-end="url(#arrow)"/><line x1="145.0" y1="1010" x2="145.0" y2="1028" stroke="#2d3e50" stroke-width="1.2" marker-end="url(#arrow)"/><line x1="145.0" y1="1066" x2="145.0" y2="1084" stroke="#2d3e50" stroke-width="1.2" marker-end="url(#arrow)"/><line x1="145.0" y1="1122" x2="145.0" y2="1140" stroke="#2d3e50" stroke-width="1.2" marker-end="url(#arrow)"/><line x1="145.0" y1="1178" x2="145.0" y2="1196" stroke="#2d3e50" stroke-width="1.2" marker-end="url(#arrow)"/><line x1="145.0" y1="1234" x2="145.0" y2="1252" stroke="#2d3e50" stroke-width="1.2" marker-end="url(#arrow)"/><line x1="145.0" y1="1290" x2="145.0" y2="1308" stroke="#2d3e50" stroke-width="1.2" marker-end="url(#arrow)"/><line x1="145.0" y1="1346" x2="145.0" y2="1364" stroke="#2d3e50" stroke-width="1.2" marker-end="url(#arrow)"/><line x1="145.0" y1="1402" x2="145.0" y2="1420" stroke="#2d3e50" stroke-width="1.2" marker-end="url(#arrow)"/><line x1="145.0" y1="1458" x2="145.0" y2="1476" stroke="#2d3e50" stroke-width="1.2" marker-end="url(#arrow)"/>
  <rect x="20" y="20" rx="6" ry="6" width="250" height="38" fill="#f5f7fb" stroke="#2d3e50" stroke-width="1.5"/><text x="145.0" y="44.0" font-family="Segoe UI, Arial, sans-serif" font-size="12" text-anchor="middle" fill="#1f2933">Input 3x32x32</text><rect x="20" y="76" rx="6" ry="6" width="250" height="38" fill="#f5f7fb" stroke="#2d3e50" stroke-width="1.5"/><text x="145.0" y="100.0" font-family="Segoe UI, Arial, sans-serif" font-size="12" text-anchor="middle" fill="#1f2933">Conv2d 3?32 k3 p1</text><rect x="20" y="132" rx="6" ry="6" width="250" height="38" fill="#f5f7fb" stroke="#2d3e50" stroke-width="1.5"/><text x="145.0" y="156.0" font-family="Segoe UI, Arial, sans-serif" font-size="12" text-anchor="middle" fill="#1f2933">Activation (ReLU/Tanh)</text><rect x="20" y="188" rx="6" ry="6" width="250" height="38" fill="#f5f7fb" stroke="#2d3e50" stroke-width="1.5"/><text x="145.0" y="212.0" font-family="Segoe UI, Arial, sans-serif" font-size="12" text-anchor="middle" fill="#1f2933">Conv2d 32?32 k3 p1</text><rect x="20" y="244" rx="6" ry="6" width="250" height="38" fill="#f5f7fb" stroke="#2d3e50" stroke-width="1.5"/><text x="145.0" y="268.0" font-family="Segoe UI, Arial, sans-serif" font-size="12" text-anchor="middle" fill="#1f2933">Activation</text><rect x="20" y="300" rx="6" ry="6" width="250" height="38" fill="#f5f7fb" stroke="#2d3e50" stroke-width="1.5"/><text x="145.0" y="324.0" font-family="Segoe UI, Arial, sans-serif" font-size="12" text-anchor="middle" fill="#1f2933">Conv2d 32?32 k3 p1</text><rect x="20" y="356" rx="6" ry="6" width="250" height="38" fill="#f5f7fb" stroke="#2d3e50" stroke-width="1.5"/><text x="145.0" y="380.0" font-family="Segoe UI, Arial, sans-serif" font-size="12" text-anchor="middle" fill="#1f2933">Activation</text><rect x="20" y="412" rx="6" ry="6" width="250" height="38" fill="#f5f7fb" stroke="#2d3e50" stroke-width="1.5"/><text x="145.0" y="436.0" font-family="Segoe UI, Arial, sans-serif" font-size="12" text-anchor="middle" fill="#1f2933">MaxPool2d 2x2</text><rect x="20" y="468" rx="6" ry="6" width="250" height="38" fill="#f5f7fb" stroke="#2d3e50" stroke-width="1.5"/><text x="145.0" y="492.0" font-family="Segoe UI, Arial, sans-serif" font-size="12" text-anchor="middle" fill="#1f2933">Dropout(p=dropout_p)</text><rect x="20" y="524" rx="6" ry="6" width="250" height="38" fill="#f5f7fb" stroke="#2d3e50" stroke-width="1.5"/><text x="145.0" y="548.0" font-family="Segoe UI, Arial, sans-serif" font-size="12" text-anchor="middle" fill="#1f2933">Conv2d 32?64 k3 p1</text><rect x="20" y="580" rx="6" ry="6" width="250" height="38" fill="#f5f7fb" stroke="#2d3e50" stroke-width="1.5"/><text x="145.0" y="604.0" font-family="Segoe UI, Arial, sans-serif" font-size="12" text-anchor="middle" fill="#1f2933">Activation</text><rect x="20" y="636" rx="6" ry="6" width="250" height="38" fill="#f5f7fb" stroke="#2d3e50" stroke-width="1.5"/><text x="145.0" y="660.0" font-family="Segoe UI, Arial, sans-serif" font-size="12" text-anchor="middle" fill="#1f2933">Conv2d 64?64 k3 p1</text><rect x="20" y="692" rx="6" ry="6" width="250" height="38" fill="#f5f7fb" stroke="#2d3e50" stroke-width="1.5"/><text x="145.0" y="716.0" font-family="Segoe UI, Arial, sans-serif" font-size="12" text-anchor="middle" fill="#1f2933">Activation</text><rect x="20" y="748" rx="6" ry="6" width="250" height="38" fill="#f5f7fb" stroke="#2d3e50" stroke-width="1.5"/><text x="145.0" y="772.0" font-family="Segoe UI, Arial, sans-serif" font-size="12" text-anchor="middle" fill="#1f2933">Conv2d 64?64 k3 p1</text><rect x="20" y="804" rx="6" ry="6" width="250" height="38" fill="#f5f7fb" stroke="#2d3e50" stroke-width="1.5"/><text x="145.0" y="828.0" font-family="Segoe UI, Arial, sans-serif" font-size="12" text-anchor="middle" fill="#1f2933">Activation</text><rect x="20" y="860" rx="6" ry="6" width="250" height="38" fill="#f5f7fb" stroke="#2d3e50" stroke-width="1.5"/><text x="145.0" y="884.0" font-family="Segoe UI, Arial, sans-serif" font-size="12" text-anchor="middle" fill="#1f2933">MaxPool2d 2x2</text><rect x="20" y="916" rx="6" ry="6" width="250" height="38" fill="#f5f7fb" stroke="#2d3e50" stroke-width="1.5"/><text x="145.0" y="940.0" font-family="Segoe UI, Arial, sans-serif" font-size="12" text-anchor="middle" fill="#1f2933">Dropout(p=dropout_p)</text><rect x="20" y="972" rx="6" ry="6" width="250" height="38" fill="#f5f7fb" stroke="#2d3e50" stroke-width="1.5"/><text x="145.0" y="996.0" font-family="Segoe UI, Arial, sans-serif" font-size="12" text-anchor="middle" fill="#1f2933">Conv2d 64?128 k3 p1</text><rect x="20" y="1028" rx="6" ry="6" width="250" height="38" fill="#f5f7fb" stroke="#2d3e50" stroke-width="1.5"/><text x="145.0" y="1052.0" font-family="Segoe UI, Arial, sans-serif" font-size="12" text-anchor="middle" fill="#1f2933">Activation</text><rect x="20" y="1084" rx="6" ry="6" width="250" height="38" fill="#f5f7fb" stroke="#2d3e50" stroke-width="1.5"/><text x="145.0" y="1108.0" font-family="Segoe UI, Arial, sans-serif" font-size="12" text-anchor="middle" fill="#1f2933">Conv2d 128?128 k3 p1</text><rect x="20" y="1140" rx="6" ry="6" width="250" height="38" fill="#f5f7fb" stroke="#2d3e50" stroke-width="1.5"/><text x="145.0" y="1164.0" font-family="Segoe UI, Arial, sans-serif" font-size="12" text-anchor="middle" fill="#1f2933">Activation</text><rect x="20" y="1196" rx="6" ry="6" width="250" height="38" fill="#f5f7fb" stroke="#2d3e50" stroke-width="1.5"/><text x="145.0" y="1220.0" font-family="Segoe UI, Arial, sans-serif" font-size="12" text-anchor="middle" fill="#1f2933">Conv2d 128?128 k3 p1</text><rect x="20" y="1252" rx="6" ry="6" width="250" height="38" fill="#f5f7fb" stroke="#2d3e50" stroke-width="1.5"/><text x="145.0" y="1276.0" font-family="Segoe UI, Arial, sans-serif" font-size="12" text-anchor="middle" fill="#1f2933">Activation</text><rect x="20" y="1308" rx="6" ry="6" width="250" height="38" fill="#f5f7fb" stroke="#2d3e50" stroke-width="1.5"/><text x="145.0" y="1332.0" font-family="Segoe UI, Arial, sans-serif" font-size="12" text-anchor="middle" fill="#1f2933">MaxPool2d 2x2</text><rect x="20" y="1364" rx="6" ry="6" width="250" height="38" fill="#f5f7fb" stroke="#2d3e50" stroke-width="1.5"/><text x="145.0" y="1388.0" font-family="Segoe UI, Arial, sans-serif" font-size="12" text-anchor="middle" fill="#1f2933">Dropout(p=dropout_p)</text><rect x="20" y="1420" rx="6" ry="6" width="250" height="38" fill="#f5f7fb" stroke="#2d3e50" stroke-width="1.5"/><text x="145.0" y="1444.0" font-family="Segoe UI, Arial, sans-serif" font-size="12" text-anchor="middle" fill="#1f2933">Flatten 128?4?4</text><rect x="20" y="1476" rx="6" ry="6" width="250" height="38" fill="#f5f7fb" stroke="#2d3e50" stroke-width="1.5"/><text x="145.0" y="1500.0" font-family="Segoe UI, Arial, sans-serif" font-size="12" text-anchor="middle" fill="#1f2933">Linear 2048?10 (logits)</text>
</svg>
